<?xml version="1.0" standalone="no"?>
<!DOCTYPE svg PUBLIC "-//W3C//DTD SVG 20010904//EN"
 "http://www.w3.org/TR/2001/REC-SVG-20010904/DTD/svg10.dtd">
<svg version="1.0" xmlns="http://www.w3.org/2000/svg"
 width="18" height="18" viewBox="-86 -86 684 684"
 preserveAspectRatio="xMidYMid meet">

<g transform="translate(0.000000,512.000000) scale(0.100000,-0.100000)"
fill="#000000" stroke="none">
<path d="M2422 4920 c-263 -94 -437 -361 -419 -641 16 -246 183 -472 409 -554
l63 -23 3 -77 c3 -92 -6 -111 -114 -219 -116 -117 -230 -196 -599 -416 -365
-218 -494 -309 -639 -455 -255 -257 -356 -561 -317 -950 21 -203 89 -424 174
-565 l33 -55 1544 0 1544 0 33 55 c70 116 133 300 165 480 8 45 13 146 12 255
-1 161 -4 190 -27 280 -78 291 -268 527 -607 755 -47 31 -193 121 -325 200
-372 222 -477 295 -593 409 -105 103 -122 133 -122 211 l0 68 67 7 c244 26
458 198 537 431 28 83 25 110 -16 138 -32 23 -55 20 -107 -13 -97 -62 -139
-75 -241 -76 -86 0 -101 3 -162 32 -93 44 -151 100 -196 191 -35 72 -37 81
-37 171 1 103 14 145 76 242 35 56 37 82 4 114 -30 30 -69 32 -143 5z"/>
<path d="M960 787 c-49 -16 -133 -102 -148 -153 -8 -26 -12 -112 -12 -233 0
-190 0 -192 25 -216 l24 -25 1711 0 1711 0 24 25 c25 24 25 26 25 216 0 121
-4 207 -12 233 -16 55 -99 138 -154 154 -56 16 -3141 16 -3194 -1z"/>
</g>
</svg>
